<svg class="logosvg" viewBox="0 0 231 231" xmlns="http://www.w3.org/2000/svg"><g id="Page-1" stroke="none" stroke-width="1" fill="none" fill-rule="evenodd"><g id="recommond_logo"><g id="Group"><g fill-rule="nonzero" id="Shape"><path d="M177.772,0.2 L52.453,0.2 C23.666,0.2 0.113,23.753 0.113,52.54 L0.113,177.86 C0.113,206.647 23.666,230.2 52.453,230.2 L177.773,230.2 C206.56,230.2 230.113,206.647 230.113,177.86 L230.113,52.54 C230.113,23.753 206.559,0.2 177.772,0.2 Z" fill="#DD001B"></path><path d="M139.399,71.14 C138.764,68.733 137.798,65.056 137.058,62.295 C136.496,60.258 136.237,57.944 136.837,55.883 C137.005,55.304 137.263,54.783 137.548,54.253 C138.787,51.952 141.102,50.364 143.671,49.938 C144.837,49.745 146.035,49.804 147.177,50.105 C148.374,50.421 149.502,50.986 150.488,51.73 C151.52,52.51 152.328,53.518 153.27,54.394 C154.797,55.819 156.844,56.691 159.096,56.691 C163.817,56.691 167.645,52.863 167.645,48.143 C167.645,46.742 167.305,45.422 166.708,44.257 C166.656,44.156 166.602,44.054 166.545,43.953 C166.507,43.887 166.468,43.819 166.428,43.753 C165.472,42.142 164.09,40.743 162.665,39.52 C159.926,37.167 156.692,35.391 153.254,34.296 C151.637,33.78 149.971,33.415 148.285,33.222 C144.574,32.796 140.782,33.184 137.236,34.357 C123.26,38.971 116.557,51.997 120.564,66.78 C120.96,68.259 121.645,70.869 122.006,72.228 C119.015,72.871 116.046,73.75 113.131,74.873 C99.479,80.13 88.644,91.804 84.855,105.341 C83.508,110.156 83.046,115.147 83.485,120.18 C84.432,131.055 90.233,141.186 98.999,147.275 C107.258,153.013 117.137,154.697 126.825,152.026 C133.682,150.132 139.778,146.057 143.99,140.553 C150.655,131.847 152.643,120.404 149.587,108.335 C148.475,103.944 147.075,99.066 145.723,94.346 C145.232,92.641 144.742,90.928 144.261,89.23 C150.057,90.721 155.402,93.541 159.746,97.599 C174.837,111.694 177.746,135.972 166.511,154.076 C156.644,169.978 137.424,180.252 117.545,180.252 C84.025,180.252 56.755,152.983 56.755,119.465 C56.755,116.488 56.986,113.475 57.44,110.517 C57.805,108.131 58.32,105.752 58.968,103.441 C59.608,101.163 60.391,98.897 61.296,96.712 C62.196,94.54 63.231,92.406 64.378,90.359 C65.511,88.331 66.784,86.343 68.155,84.447 C69.511,82.57 71,80.747 72.574,79.03 C74.143,77.318 75.83,75.681 77.587,74.159 C79.342,72.64 81.209,71.205 83.133,69.893 C85.064,68.576 87.091,67.363 89.159,66.284 C90.294,65.693 91.444,65.137 92.613,64.621 C93.24,64.343 93.874,64.077 94.511,63.823 C98.897,62.075 101.034,57.103 99.286,52.717 C97.539,48.331 92.568,46.19 88.18,47.945 C87.352,48.275 86.529,48.623 85.69,48.991 C84.186,49.658 82.702,50.371 81.249,51.132 C78.595,52.517 75.993,54.074 73.51,55.765 C71.042,57.447 68.65,59.286 66.399,61.237 C64.149,63.185 61.984,65.286 59.976,67.479 C57.955,69.679 56.049,72.018 54.305,74.425 C52.547,76.856 50.916,79.409 49.462,82.01 C47.99,84.636 46.658,87.38 45.502,90.169 C44.337,92.984 43.329,95.898 42.509,98.828 C41.676,101.796 41.015,104.856 40.544,107.92 C39.957,111.736 39.659,115.622 39.659,119.466 C39.659,162.411 74.599,197.347 117.543,197.347 C143.2,197.347 168.122,183.9 181.033,163.089 C196.741,137.782 192.694,104.985 171.411,85.107 C162.699,76.968 151.356,72.193 139.399,71.14 Z M130.416,130.163 C128.454,132.726 125.559,134.641 122.271,135.55 C116.242,137.208 111.591,135.208 108.753,133.237 C104.106,130.01 101.027,124.571 100.512,118.697 C100.254,115.72 100.522,112.778 101.315,109.949 C103.678,101.509 110.558,94.182 119.273,90.825 C121.613,89.925 123.997,89.242 126.391,88.773 C127.298,92.122 128.296,95.604 129.288,99.062 C130.628,103.728 131.956,108.35 133.014,112.531 C134.251,117.411 134.804,124.432 130.416,130.163 Z" fill="#FFFFFF"></path></g></g></g></g></svg>
